<?xml version="1.0" encoding="UTF-8" standalone="no"?>
<svg
   xmlns:dc="http://purl.org/dc/elements/1.1/"
   xmlns:cc="http://creativecommons.org/ns#"
   xmlns:rdf="http://www.w3.org/1999/02/22-rdf-syntax-ns#"
   xmlns:svg="http://www.w3.org/2000/svg"
   xmlns="http://www.w3.org/2000/svg"
   id="svg70"
   version="1.1"
   style="overflow:visible"
   viewBox="-240 -136 480 264"
   height="1056px"
   width="1920px">
  <metadata
     id="metadata76">
    <rdf:RDF>
      <cc:Work
         rdf:about="">
        <dc:format>image/svg+xml</dc:format>
        <dc:type
           rdf:resource="http://purl.org/dc/dcmitype/StillImage" />
      </cc:Work>
    </rdf:RDF>
  </metadata>
  <defs
     id="defs74" />
  <rect
     id="rect2"
     fill-opacity="0"
     fill="rgb(0,0,0)"
     height="264"
     width="480"
     y="-136"
     x="-240" />
  <svg
     id="svg68"
     version="1.1"
     y="-250"
     x="-250"
     viewBox="-250 -250 500 500"
     height="500"
     width="500"
     style="overflow:visible">
    <g
       style="fill:#ffffff;stroke-linejoin:round"
       id="g66">
      <path
         style="fill:#ff0e3b;fill-opacity:1;stroke:#444444;stroke-width:6;stroke-linecap:butt;stroke-linejoin:round;stroke-opacity:1"
         id="path4"
         d="m -65.158,-100.633 c 0,0 -17.8301,-1.95193 -38.1197,7.817289 -18.7802,9.04245 -23.5492,18.2761 -16.106,31.3273 l 66.276798,-26.201 z" />
      <path
         style="fill:#ff0e3b;fill-opacity:1;stroke:#444444;stroke-width:6;stroke-linecap:butt;stroke-linejoin:round;stroke-opacity:1"
         id="path6"
         d="m 144.694,-105.655 c 0,0 34.287,-3.99553 43.4303,1.5028 6.90243,4.15083 16.507,13.3071 13.7449,23.6056 l -57.1061,27.6612 z" />
      <path
         style="fill:#ffffff;fill-opacity:1;stroke:none;stroke-linecap:butt;stroke-linejoin:round"
         id="path8"
         d="m -6.525001,-106.053 c -17.6561,-0.0147 -30.281,0.006 -32.5586,0.084 -9.1103,0.31386 -26.0742,5.33594 -26.0742,5.33594 0,0 2.19952,2.82375 2.51367,5.64843 0.3141,2.82472 -28.587,15.3798 -49.949199,21.9707 -38.1711,16.3899 -73.1252,47.057 -98.0156,72.8144 -0.47024,0.48661 -0.90055,1.05442 -1.30078,1.67969 l 8.95117,5 -12.3242,5 c -0.36293,2.03221 -0.63701,4.14131 -0.82227,6.24609 l 22.1016,9.08399 -22.2578,9.08398 h -0.002 c 0,0 -6.28204,1.67922 -9.10938,4.50391 -2.82734,2.8247 -1.88472,31.9025 2.19922,35.041 4.0839,3.13853 67.541,5.02149 67.541,5.02149 l 47.1797,2.02929 247.703,-2.63085 c 0,0 77.7496,0.23067 83.2422,-4.56055 4.93776,-4.3073 6.41668,-15.215 1.36719,-20.2598 -1e-5,0 0.0894,-6.02862 0.15234,-13.7285 l -9.82449,-21.8173 9.35769,-20.6338 c -0.9533,-21.3421 -18.1835,-79.4063 -21.6758,-79.4063 0,3e-5 -33.299,0.94293 -39.582,-0.3125 -6.283,-1.2554 -17.5938,-24.7949 -17.5938,-24.7949 0,0 -98.250297,-0.3543 -151.218997,-0.39843 z" />
      <path
         style="fill:#ff0e3b;fill-opacity:1;stroke:none;stroke-linecap:butt;stroke-linejoin:round"
         id="path10"
         d="m 218.853,-1.141 c -2.93073,0 -5.29051,2.35755 -5.29051,5.28554 v 31.8812 c 0,2.92797 2.35978,5.28554 5.29051,5.28554 h 5.15893 c 0.0987,-12.059 0.12034,-29.3263 -0.46601,-42.4523 z" />
      <path
         style="fill:#aaaaaa;fill-opacity:1;stroke:none;stroke-linecap:butt;stroke-linejoin:round"
         id="path12"
         d="m 46.853,17.985 v 6.39175 l 101.126,0.099 v -6.39361 z" />
      <path
         style="fill:#aaaaaa;fill-opacity:1;stroke:none;stroke-linecap:butt;stroke-linejoin:round"
         id="path14"
         d="m -60.300001,0.270999 v 9.4039 c 0,1.25299 -1.00966,2.2617 -2.26382,2.2617 h -1.78723 c -1.25416,0 -2.26382,-1.00871 -2.26382,-2.2617 v -9.4039 c 0,-1.25298 1.00966,-2.26171 2.26382,-2.26171 h 1.78723 c 1.25416,0 2.26382,1.00872 2.26382,2.26171 z" />
      <path
         style="fill:#aaaaaa;fill-opacity:1;stroke:none;stroke-linecap:butt;stroke-linejoin:round"
         id="path16"
         d="m -107.688,2.908999 h 8.91423 c 1.25416,0 2.62892,1.06297 2.26383,2.2617 l -0.54383,1.78555 c -0.36509,1.19871 -1.00966,2.26169 -2.26382,2.26169 h -8.86892 c -1.25416,0 -2.60078,-1.05478 -2.26382,-2.26169 l 0.49851,-1.78555 c 0.33696,-1.20692 1.00966,-2.2617 2.26382,-2.2617 z" />
      <path
         style="fill:#ff0e3b;fill-opacity:1;stroke:none;stroke-linecap:butt;stroke-linejoin:round"
         id="path18"
         d="m 96.033,1.480999 h 110.576 c 1.10169,0 1.9886,0.88692 1.9886,1.9886 v 6.0228 c 0,1.10168 -0.88691,1.9886 -1.9886,1.9886 H 96.033 c -1.10169,0 -1.9886,-0.88692 -1.9886,-1.9886 v -6.0228 c 0,-1.10168 0.88691,-1.9886 1.9886,-1.9886 z" />
      <path
         style="fill:#ff0e3b;fill-opacity:1;stroke:none;stroke-linecap:butt;stroke-linejoin:round"
         id="path20"
         d="m 48.636,1.480999 h 35.199 c 1.10169,0 1.9886,0.88692 1.9886,1.9886 v 6.0228 c 0,1.10168 -0.88691,1.9886 -1.9886,1.9886 H 48.636 c -1.10168,0 -1.9886,-0.88692 -1.9886,-1.9886 v -6.0228 c 0,-1.10168 0.88692,-1.9886 1.9886,-1.9886 z" />
      <path
         style="fill:#ff0e3b;fill-opacity:1;stroke:none;stroke-linecap:butt;stroke-linejoin:round"
         id="path22"
         d="m -52.381,1.480999 h 89.0591 c 1.10169,0 1.9886,0.88692 1.9886,1.9886 v 6.0228 c 0,1.10168 -0.88691,1.9886 -1.9886,1.9886 h -86.9959 c -1.10168,0 -1.63157,-0.94638 -1.9886,-1.9886 l -2.063211,-6.0228 c -0.35703,-1.04222 0.88692,-1.9886 1.9886,-1.9886 z" />
      <path
         style="fill:#ff0e3b;fill-opacity:1;stroke:none;stroke-linecap:butt;stroke-linejoin:round"
         id="path24"
         d="m -92.836001,1.480999 h 18.2031 c 1.10168,0 1.9886,0.88692 1.9886,1.9886 v 6.0228 c 0,1.10168 -0.88692,1.9886 -1.9886,1.9886 h -19.8912 c -1.10169,0 -2.28593,-0.9278 -1.9886,-1.9886 l 1.68808,-6.0228 c 0.29732,-1.0608 0.88691,-1.9886 1.9886,-1.9886 z" />
      <path
         style="fill:#ff0e3b;fill-opacity:1;stroke:none;stroke-linecap:butt;stroke-linejoin:round"
         id="path26"
         d="m -211.9139,1.480999 c -1.61802,2.52948 -2.68153,6.10531 -3.37695,10 h 99.1816 c 1.10169,0 1.72196,-0.91928 1.98829,-1.98828 l 1.5,-6.02344 c 0.26633,-1.069 -0.88661,-1.98828 -1.98829,-1.98828 z" />
      <path
         style="fill:#bbbbbb;fill-opacity:1;stroke:none;stroke-linecap:butt;stroke-linejoin:round"
         id="path28"
         d="m -216.1053,17.726 c -0.81212,9.2279 -0.15716,18.168 -0.15716,18.168 h 24.8124 c 3.10484,0 -1.84599,-18.168 -5.10674,-18.168 z" />
      <path
         style="fill:#dddddd;fill-opacity:1;stroke:none;stroke-linecap:butt;stroke-linejoin:round"
         id="path30"
         d="m -211.2471,21.788 c -3.11737,5.17986 -0.45435,10.0545 -0.0869,10.0436 h 14.5002 c 1.71642,0 -1.0205,-10.0436 -2.82311,-10.0436 z" />
      <path
         style="fill:#aaaaaa;fill-opacity:1;stroke:none;stroke-linecap:butt;stroke-linejoin:round"
         id="path32"
         d="m -216.5746,46.386 h 2.30376 c 1.03081,0 1.86066,0.82908 1.86066,1.85892 v 15.8496 c 0,1.02983 -0.82985,1.85891 -1.86066,1.85891 h -2.18159 c -1.03081,0 -1.66909,-0.84702 -1.86066,-1.85891 -0.80081,-4.22994 -1.34871,-9.56124 -0.7941,-14.7512 0.10943,-1.024011 1.50178,-2.95741 2.53259,-2.95741 z" />
      <path
         style="fill:#4296ce;fill-opacity:1;stroke:none;stroke-linecap:butt;stroke-linejoin:round"
         id="path34"
         d="m -67.048,-53.249 h 263.315 c 10.2605,0 11.9235,38.6412 11.9831,42.8073 0.0418,2.92768 -2.35939,5.28515 -5.29012,5.28515 h -249.414 c -4.21784,0 -8.85482,-2.82148 -10.4385,-5.28515 -7.26855,-11.3072 -9.81448,-22.6144 -13.9007,-33.9216 -2.13167,-5.89863 0.81487,-8.88566 3.7456,-8.88566 z" />
      <path
         style="fill:#59a3d4;fill-opacity:1;stroke:none;stroke-linecap:butt;stroke-linejoin:round"
         id="path36"
         d="m 194.787,-49.607 c 4.01052,0 10.7393,27.9176 7.41705,27.9176 -113.486001,1.79607 -304.592,-27.7044 -246.673001,-27.7044 z" />
      <path
         style="fill:#4296ce;fill-opacity:1;stroke:none;stroke-linecap:butt;stroke-linejoin:round"
         id="path38"
         d="m -140.65,-47.226 c -14.0472,9.1662 -45.8509,33.9177 -41.0918,40.2715 1.0681,1.426 81.1511,1.54576 83.9199,-0.85547 1.06707,-0.92538 2.51437,-4.90857 3.94727,-10.0742 z" />
      <path
         style="fill:#59a3d4;fill-opacity:1;stroke:none;stroke-linecap:butt;stroke-linejoin:round"
         id="path40"
         d="m -106.748,-53.07 c -10.8892,-0.10455 -23.5584,0.77555 -28.123,2.48047 -1.00665,0.37598 -3.10673,1.61934 -5.7793,3.36328 11.214,19.0607 24.5906,26.5064 46.7754,29.3418 3.40683,-12.2817 6.73087,-31.3986 4.65625,-33.0781 -1.66652,-1.34911 -9.05991,-2.02611 -17.5293,-2.10742 z" />
      <path
         style="fill:#ffffff;fill-opacity:1;stroke:none;stroke-linecap:butt;stroke-linejoin:round"
         id="path42"
         d="m -154.2481,-27.602001 c -4.11193,-1.87792 -13.1064,3.60686 -17.2615,9.17812 -3.29406,4.41676 -2.97109,8.074809 1.60947,8.92067 4.42688,0.81748 8.24627,0.69752 12.8088,-0.17309 4.96132,-0.94671 6.00014,-16.484001 2.84321,-17.9257 z" />
      <path
         style="fill:none;stroke:#444444;stroke-width:6;stroke-linecap:butt;stroke-linejoin:round;stroke-opacity:1"
         id="path44"
         d="m -155.6325,80.461 c 0,0 -63.4582,-1.88313 -67.5421,-5.02166 -4.08394,-3.13854 -5.02639,-32.217 -2.19905,-35.0417 2.82734,-2.82469 9.11033,-4.50398 9.11033,-4.50398 0,0 -2.05972,-28.1102 5.6547,-36.0933 24.8904,-25.7574 59.8435,-56.4243 98.0146,-72.8142 21.3622,-6.59095 50.2639,-19.1451 49.9498,-21.9698 -0.31415,-2.82468 -2.5132,-5.64937 -2.5132,-5.64937 0,0 16.9641,-5.02167 26.0744,-5.33553 9.11032,-0.31385 183.777,0.31386 183.777,0.31386 0,0 11.3094,23.5391 17.5924,24.7945 6.28298,1.25542 39.5828,0.31386 39.5828,0.31386 3.49225,0 20.723,58.0631 21.6763,79.4052 0.9607,21.5068 0.31414,56.18 0.31414,56.18 5.04952,5.04478 3.57104,15.952 -1.36672,20.2593 -5.49262,4.79122 -83.2432,4.56192 -83.2432,4.56192 l -247.703,2.63048 z" />
      <path
         style="fill:#666666;fill-opacity:1;stroke:none;stroke-linecap:butt;stroke-linejoin:round"
         id="path46"
         d="M 171.318,76.526999 A 30.5595,30.5308 0 0 1 140.7585,107.0578 30.5595,30.5308 0 0 1 110.199,76.526999 a 30.5595,30.5308 0 0 1 30.5595,-30.5308 30.5595,30.5308 0 0 1 30.5595,30.5308 z" />
      <path
         style="fill:none;stroke:#444444;stroke-width:6;stroke-linecap:butt;stroke-linejoin:round;stroke-opacity:1"
         id="path48"
         d="M 171.318,76.526999 A 30.5595,30.5308 0 0 1 140.7585,107.0578 30.5595,30.5308 0 0 1 110.199,76.526999 a 30.5595,30.5308 0 0 1 30.5595,-30.5308 30.5595,30.5308 0 0 1 30.5595,30.5308 z" />
      <path
         style="fill:#ffffff;fill-opacity:1;stroke:none;stroke-linecap:butt;stroke-linejoin:round"
         id="path50"
         d="m 159.037,76.526999 a 18.2792,18.2621 0 0 1 -18.2792,18.2621 18.2792,18.2621 0 0 1 -18.2792,-18.2621 18.2792,18.2621 0 0 1 18.2792,-18.2621 18.2792,18.2621 0 0 1 18.2792,18.2621 z" />
      <path
         style="fill:#666666;fill-opacity:1;stroke:none;stroke-linecap:butt;stroke-linejoin:round"
         id="path52"
         d="m 145.345,76.526999 a 4.58745,4.58314 0 0 1 -4.58745,4.58314 4.58745,4.58314 0 0 1 -4.58745,-4.58314 4.58745,4.58314 0 0 1 4.58745,-4.58314 4.58745,4.58314 0 0 1 4.58745,4.58314 z" />
      <path
         style="fill:#666666;fill-opacity:1;stroke:none;stroke-linecap:butt;stroke-linejoin:round"
         id="path54"
         d="m 153.515,69.168 c -0.78413,-1.3569 -2.55271,-3.40737 -3.66997,-3.06302 -1.12513,0.34679 -2.17027,4.33824 -1.26291,5.90837 0.90735,1.57011 4.89057,2.6628 5.75374,1.86266 0.85713,-0.79449 -0.0367,-3.35109 -0.82086,-4.70801 z m 6.7e-4,14.7169 c 0.78415,-1.35689 1.6773,-3.91232 0.82017,-4.70681 -0.86317,-0.8001 -4.8457,0.29138 -5.75306,1.86149 -0.90736,1.57011 0.13708,5.56277 1.26224,5.90954 1.11726,0.34435 2.88651,-1.70729 3.67065,-3.06422 z m -12.7568,7.35902 c 1.56828,0 4.23,-0.50495 4.49014,-1.6438 0.26196,-1.14686 -2.67543,-4.04685 -4.49015,-4.04685 -1.81471,-1e-5 -4.7535,2.89998 -4.49151,4.04687 0.26013,1.13884 2.92319,1.6438 4.49152,1.64378 z m -12.7575,-7.35785 c 0.78414,1.35691 2.55271,3.40738 3.66998,3.06302 1.12513,-0.34677 2.17026,-4.33824 1.2629,-5.90835 -0.90735,-1.57012 -4.89057,-2.6628 -5.75374,-1.86268 -0.85713,0.79449 0.0367,3.35109 0.82086,4.70801 z m -6.8e-4,-14.7169 c -0.78415,1.3569 -1.67729,3.91233 -0.82016,4.70683 0.86316,0.80009 4.84569,-0.29138 5.75305,-1.8615 0.90737,-1.57012 -0.13707,-5.56278 -1.26222,-5.90955 -1.11727,-0.34435 -2.88652,1.7073 -3.67067,3.06422 z m 12.7568,-7.35902 c -1.56829,0 -4.23001,0.50495 -4.49014,1.6438 -0.26197,1.14687 2.67543,4.04687 4.49014,4.04687 1.81473,0 4.75351,-2.9 4.49152,-4.04687 -0.26013,-1.13885 -2.92321,-1.6438 -4.49152,-1.6438 z" />
      <path
         style="fill:#666666;fill-opacity:1;stroke:none;stroke-linecap:butt;stroke-linejoin:round"
         id="path56"
         d="m -100.024,76.526999 a 30.5595,30.5308 0 0 1 -30.5595,30.530801 30.5595,30.5308 0 0 1 -30.5595,-30.530801 30.5595,30.5308 0 0 1 30.5595,-30.5308 30.5595,30.5308 0 0 1 30.5595,30.5308 z" />
      <path
         style="fill:none;stroke:#444444;stroke-width:6;stroke-linecap:butt;stroke-linejoin:round;stroke-opacity:1"
         id="path58"
         d="m -100.024,76.526999 a 30.5595,30.5308 0 0 1 -30.5595,30.530801 30.5595,30.5308 0 0 1 -30.5595,-30.530801 30.5595,30.5308 0 0 1 30.5595,-30.5308 30.5595,30.5308 0 0 1 30.5595,30.5308 z" />
      <path
         style="fill:#ffffff;fill-opacity:1;stroke:none;stroke-linecap:butt;stroke-linejoin:round"
         id="path60"
         d="m -112.304,76.526999 a 18.2792,18.2621 0 0 1 -18.2792,18.2621 18.2792,18.2621 0 0 1 -18.2792,-18.2621 18.2792,18.2621 0 0 1 18.2792,-18.2621 18.2792,18.2621 0 0 1 18.2792,18.2621 z" />
      <path
         style="fill:#666666;fill-opacity:1;stroke:none;stroke-linecap:butt;stroke-linejoin:round"
         id="path62"
         d="m -125.996,76.526999 a 4.58745,4.58314 0 0 1 -4.58745,4.58314 4.58745,4.58314 0 0 1 -4.58745,-4.58314 4.58745,4.58314 0 0 1 4.58745,-4.58314 4.58745,4.58314 0 0 1 4.58745,4.58314 z" />
      <path
         style="fill:#666666;fill-opacity:1;stroke:none;stroke-linecap:butt;stroke-linejoin:round"
         id="path64"
         d="m -117.826,69.168 c -0.78413,-1.3569 -2.55271,-3.40737 -3.66997,-3.06302 -1.12514,0.34679 -2.17027,4.33824 -1.26291,5.90837 0.90735,1.57011 4.89057,2.6628 5.75373,1.86266 0.85714,-0.79449 -0.0367,-3.35109 -0.82085,-4.70801 z m 6.7e-4,14.7169 c 0.78415,-1.35689 1.6773,-3.91232 0.82017,-4.70681 -0.86317,-0.8001 -4.8457,0.29138 -5.75306,1.86149 -0.90736,1.57011 0.13708,5.56277 1.26224,5.90954 1.11726,0.34435 2.88651,-1.70729 3.67065,-3.06422 z m -12.7568,7.35902 c 1.56828,0 4.23,-0.50495 4.49014,-1.6438 0.26196,-1.14686 -2.67543,-4.04685 -4.49015,-4.04685 -1.81471,-1e-5 -4.75351,2.89998 -4.49151,4.04687 0.26013,1.13884 2.92319,1.6438 4.49152,1.64378 z m -12.7575,-7.35785 c 0.78414,1.35691 2.55272,3.40738 3.66998,3.06302 1.12514,-0.34677 2.17027,-4.33824 1.2629,-5.90835 -0.90735,-1.57012 -4.89057,-2.6628 -5.75373,-1.86268 -0.85713,0.79449 0.0367,3.35109 0.82085,4.70801 z m -6.7e-4,-14.7169 c -0.78415,1.3569 -1.6773,3.91233 -0.82017,4.70683 0.86317,0.80009 4.8457,-0.29138 5.75306,-1.8615 0.90736,-1.57012 -0.13708,-5.56278 -1.26223,-5.90955 -1.11726,-0.34435 -2.88651,1.7073 -3.67066,3.06422 z m 12.7568,-7.35902 c -1.56829,0 -4.23001,0.50495 -4.49014,1.6438 -0.26197,1.14687 2.67543,4.04687 4.49014,4.04687 1.81473,0 4.75351,-2.9 4.49152,-4.04687 -0.26013,-1.13885 -2.92321,-1.6438 -4.49152,-1.6438 z" />
    </g>
  </svg>
</svg>
